<?xml version="1.0" standalone="no"?>
<!DOCTYPE svg PUBLIC "-//W3C//DTD SVG 20010904//EN"
 "http://www.w3.org/TR/2001/REC-SVG-20010904/DTD/svg10.dtd">
<svg version="1.0" xmlns="http://www.w3.org/2000/svg"
 width="170.000000pt" height="170.000000pt" viewBox="0 0 170.000000 170.000000"
 preserveAspectRatio="xMidYMid meet">
<metadata>
Created by potrace 1.11, written by Peter Selinger 2001-2013
</metadata>
<g transform="translate(0.000000,170.000000) scale(0.100000,-0.100000)"
fill="#000000" stroke="none">
<path d="M741 1680 c-344 -48 -622 -296 -712 -635 -29 -112 -29 -288 0 -400
81 -306 310 -535 616 -616 112 -30 298 -30 410 0 306 81 535 310 616 616 29
112 29 288 0 400 -97 365 -403 617 -777 638 -49 3 -118 2 -153 -3z m313 -50
c285 -73 514 -307 587 -600 28 -112 23 -308 -11 -415 -51 -161 -154 -312 -280
-408 -61 -47 -65 -49 -68 -28 -2 14 -9 21 -19 19 -23 -4 -27 -26 -6 -30 49 -9
-84 -77 -227 -115 -94 -24 -271 -22 -375 6 -285 76 -506 293 -587 577 -32 113
-32 305 0 418 44 155 113 267 236 384 115 109 274 186 436 212 80 13 223 4
314 -20z"/>
<path d="M819 1621 c9 -6 12 -22 9 -50 -3 -37 -1 -41 18 -41 17 0 21 5 17 20
-5 17 0 20 26 20 24 0 31 -4 31 -20 0 -11 6 -20 14 -20 8 0 23 -3 33 -6 13 -4
15 -3 4 4 -9 6 -12 24 -9 51 3 37 1 41 -19 41 -16 0 -23 -6 -23 -20 0 -16 -7
-20 -30 -20 -31 0 -39 17 -18 38 9 9 3 12 -27 12 -27 0 -35 -3 -26 -9z"/>
<path d="M726 1611 c-37 -8 -58 -37 -36 -51 8 -5 25 -10 37 -10 12 0 25 -5 28
-10 10 -16 -26 -24 -46 -11 -16 9 -19 8 -19 -8 0 -16 5 -17 41 -11 68 13 77
49 16 64 -44 11 -50 30 -7 24 20 -3 30 0 30 9 0 14 0 14 -44 4z"/>
<path d="M1023 1593 c-7 -2 -13 -18 -13 -34 0 -22 8 -34 33 -49 55 -34 117
-21 117 25 0 43 -85 79 -137 58z m92 -23 c17 -18 17 -21 1 -45 -18 -28 -28
-30 -57 -15 -21 12 -24 32 -9 61 14 25 42 24 65 -1z"/>
<path d="M1215 1540 c7 -11 -7 -41 -30 -63 -13 -13 -11 -17 11 -32 15 -9 24
-13 21 -8 -3 5 -2 15 3 23 7 11 14 12 34 2 27 -12 27 -38 -1 -44 -9 -2 -4 -9
16 -21 30 -18 31 -18 31 1 0 10 11 31 25 46 l24 26 -28 15 c-26 13 -29 13 -27
-2 2 -22 -16 -26 -39 -8 -19 14 -19 16 -2 29 16 13 16 14 -7 30 -29 18 -40 21
-31 6z"/>
<path d="M440 1498 l-35 -21 28 -30 c15 -17 26 -36 23 -44 -7 -18 5 -16 34 7
20 16 22 20 8 20 -24 0 -23 27 2 40 11 6 20 20 20 30 0 27 -34 26 -80 -2z m50
-14 c0 -9 -7 -14 -17 -12 -25 5 -28 28 -4 28 12 0 21 -6 21 -16z"/>
<path d="M684 1481 c-222 -60 -391 -227 -460 -457 -25 -82 -25 -266 0 -349 49
-164 182 -328 321 -397 129 -65 166 -73 315 -72 114 0 145 4 200 23 198 69
352 222 421 421 20 55 23 86 23 200 0 121 -2 143 -26 208 -38 104 -83 176
-158 252 -74 73 -148 121 -248 158 -93 35 -283 41 -388 13z m311 -22 c28 -6
88 -29 135 -51 160 -76 290 -237 335 -413 16 -64 20 -135 7 -135 -4 0 -28 20
-52 45 -25 26 -53 45 -66 45 -12 0 -27 7 -34 15 -7 8 -18 15 -24 15 -7 0 -49
-32 -95 -70 l-83 -70 -32 27 c-17 16 -42 35 -55 44 l-24 15 86 160 c48 87 95
171 104 186 22 35 14 42 -30 23 -61 -25 -96 -19 -171 29 -87 58 -125 70 -200
64 -149 -12 -249 -126 -216 -246 12 -48 77 -133 120 -158 35 -21 36 -25 11
-41 -16 -10 -24 -5 -61 40 -23 29 -56 79 -73 112 l-31 60 -8 -55 c-14 -95 1
-169 44 -216 16 -18 17 -23 4 -33 -8 -7 -25 -9 -39 -6 -25 7 -37 29 -37 73 0
12 -5 22 -11 22 -6 0 -8 -7 -5 -17 4 -10 11 -54 16 -98 5 -44 12 -100 15 -124
l5 -44 -51 6 c-29 4 -53 8 -55 10 -2 2 12 54 32 116 39 126 40 124 -31 165
-23 14 -45 35 -48 46 -3 11 -13 20 -25 20 -11 0 -25 7 -32 15 -18 22 -33 18
-53 -12 l-17 -28 6 30 c14 67 78 177 144 248 157 168 370 234 595 186z m-73
-190 c34 -11 75 -30 90 -41 l29 -20 -63 -119 -62 -118 -60 32 c-34 18 -82 53
-108 78 -43 41 -48 50 -48 90 0 104 89 143 222 98z m-586 -259 c14 0 24 -8 28
-22 3 -13 27 -37 53 -53 58 -37 59 -48 18 -177 l-27 -88 -42 0 c-51 0 -107 27
-123 60 -16 31 -15 165 0 205 22 55 51 95 61 85 6 -6 20 -10 32 -10z m984 -65
c7 -8 22 -15 33 -15 12 0 44 -23 74 -52 48 -47 53 -57 53 -96 0 -41 -13 -81
-31 -93 -16 -10 -80 3 -76 15 6 15 -79 11 -130 -5 -40 -13 -50 -7 -58 31 -4
16 -17 45 -30 64 l-23 34 76 66 c43 35 82 65 88 65 6 1 17 -6 24 -14z m-493
-49 c26 -18 29 -24 19 -38 -11 -15 -17 -14 -63 12 -60 35 -69 46 -52 66 13 16
11 16 96 -40z m-89 -125 c55 -26 58 -31 42 -62 -8 -14 -21 -19 -53 -19 -24 0
-48 5 -54 11 -14 14 -53 2 -53 -17 0 -10 -12 -14 -40 -14 -44 0 -44 0 -55 104
l-5 58 25 -6 c16 -4 34 -1 47 8 18 13 24 12 57 -12 21 -15 61 -38 89 -51z
m259 13 c27 -21 73 -88 73 -109 0 -3 -13 -5 -30 -5 -20 0 -33 7 -41 23 -6 12
-25 36 -41 53 -18 20 -26 37 -22 47 9 23 21 21 61 -9z m321 -99 c-2 -6 -7 -11
-13 -11 -5 -1 -14 -2 -20 -3 -5 -1 -3 -6 5 -12 11 -8 6 -9 -20 -5 -28 5 -31 4
-15 -4 17 -9 16 -10 -7 -5 -21 4 -28 1 -28 -10 0 -18 41 -20 58 -3 10 10 15
10 22 -2 5 -8 10 -10 10 -4 0 6 10 22 23 36 18 21 26 24 45 17 13 -5 21 -13
18 -18 -11 -18 28 -22 41 -5 26 35 13 -9 -24 -85 -52 -105 -169 -222 -273
-273 -77 -38 -199 -72 -229 -65 -11 3 -8 5 7 6 12 0 22 5 22 10 0 4 -25 8 -55
7 -58 0 -74 -12 -27 -19 15 -2 2 -5 -28 -5 -158 -4 -352 93 -461 230 -42 53
-116 194 -106 204 10 10 57 -9 57 -23 0 -10 6 -13 17 -8 29 11 213 19 213 9 0
-11 -36 -34 -70 -45 -22 -6 -22 -7 -4 -8 12 -1 39 12 60 27 44 32 90 44 134
36 33 -7 41 -24 12 -24 -10 0 -23 -5 -30 -12 -15 -15 -16 -74 -2 -83 6 -4 8
-11 5 -16 -9 -14 -41 -11 -54 5 -7 9 -26 12 -54 9 -54 -5 -55 -5 -102 6 l-40
9 43 1 c23 0 42 6 42 11 0 12 -42 13 -92 1 -28 -7 -40 -5 -53 8 -15 13 -17 13
-13 1 2 -8 14 -19 26 -25 12 -5 22 -13 22 -17 0 -5 18 -8 41 -8 22 0 49 -5 60
-10 11 -6 25 -7 32 -3 18 11 78 13 72 2 -4 -5 -14 -9 -23 -9 -9 0 -43 -11 -74
-24 -32 -13 -55 -20 -52 -15 3 5 -4 9 -15 9 -12 0 -21 -4 -21 -9 0 -14 27 -21
80 -21 27 0 56 -3 65 -6 14 -6 13 -10 -11 -30 -31 -27 -36 -28 -52 -12 -9 9
-12 9 -12 1 0 -7 13 -21 30 -33 27 -19 33 -20 70 -7 40 13 44 27 9 27 -12 0
-16 5 -13 14 5 13 11 13 46 0 48 -17 48 -17 48 -5 0 5 -12 12 -26 15 -15 4
-24 9 -21 12 9 9 78 -19 74 -31 -2 -5 -16 -11 -30 -13 -15 -2 -27 -8 -27 -13
0 -6 26 -8 65 -5 64 4 66 4 115 -35 27 -21 55 -39 61 -39 7 0 45 18 86 40 40
22 73 37 73 32 0 -12 171 -5 183 7 6 6 -25 9 -81 8 l-90 -2 41 35 c48 42 63
49 102 48 17 0 22 -2 13 -5 -10 -2 -18 -8 -18 -11 0 -4 -4 -14 -10 -22 -8 -12
-11 -12 -28 3 -18 16 -20 16 -37 -3 -20 -22 -15 -37 7 -24 7 5 37 7 67 5 37
-2 51 0 47 8 -4 6 -17 11 -29 11 -18 0 -19 2 -7 10 8 5 25 7 37 3 26 -6 73 4
73 15 0 4 -17 7 -37 6 -21 -2 -28 0 -15 2 39 9 13 24 -43 24 -42 0 -53 3 -49
14 7 17 73 35 111 29 25 -4 26 -3 10 7 -11 7 -31 10 -46 7 -44 -9 -49 1 -37
76 7 49 14 66 23 62 8 -2 24 0 36 7 12 6 29 15 37 19 19 10 33 7 28 -6z m-653
-5 c3 -5 1 -10 -4 -10 -6 0 -11 5 -11 10 0 6 2 10 4 10 3 0 8 -4 11 -10z m83
-29 c-13 -21 -28 -19 -28 5 0 8 9 14 20 14 17 0 19 -3 8 -19z m175 -15 c5 -11
0 -13 -25 -5 -43 12 -47 19 -11 19 17 0 33 -6 36 -14z m117 10 c0 -11 -19 -15
-25 -6 -3 5 1 10 9 10 9 0 16 -2 16 -4z m30 -6 c0 -5 -2 -10 -4 -10 -3 0 -8 5
-11 10 -3 6 -1 10 4 10 6 0 11 -4 11 -10z m-215 -10 c3 -5 -1 -10 -10 -10 -9
0 -13 5 -10 10 3 6 8 10 10 10 2 0 7 -4 10 -10z m212 -26 c6 -18 -58 -95 -109
-132 -47 -33 -88 -37 -88 -9 0 8 3 8 12 -1 8 -8 15 -9 25 -1 21 18 16 49 -7
49 -11 0 -28 5 -39 11 -19 13 -91 4 -91 -10 0 -5 -12 -6 -26 -3 l-26 5 30 13
c17 7 41 29 54 48 22 34 26 36 79 36 64 0 68 -6 69 -90 1 -44 1 -44 18 -25 9
12 25 24 35 28 9 3 17 11 17 17 0 6 -4 9 -9 6 -4 -3 -6 6 -3 20 3 18 7 22 13
13 6 -10 10 -10 23 0 16 14 23 36 8 27 -4 -2 -14 0 -22 5 -12 8 -9 9 9 7 14
-2 26 -8 28 -14z m-212 -104 c3 -5 17 -10 31 -10 14 0 23 -4 20 -8 -6 -11
-116 8 -116 20 0 12 58 10 65 -2z m-258 -76 c-3 -3 -12 -4 -19 -1 -8 3 -5 6 6
6 11 1 17 -2 13 -5z"/>
<path d="M1348 643 c6 -2 18 -2 25 0 6 3 1 5 -13 5 -14 0 -19 -2 -12 -5z"/>
<path d="M616 631 c-11 -4 -15 -10 -10 -13 10 -6 54 8 54 17 0 7 -21 5 -44 -4z"/>
<path d="M345 620 c5 -7 -1 -9 -19 -4 -16 4 -26 2 -26 -5 0 -6 12 -12 28 -12
15 -1 43 -3 62 -4 19 -2 28 -1 20 2 -8 3 -28 12 -44 20 -16 9 -25 10 -21 3z"/>
<path d="M1350 610 l-25 -7 27 -8 c31 -8 58 -1 58 15 0 11 -23 12 -60 0z"/>
<path d="M548 596 c-21 -5 -38 -14 -38 -18 0 -5 9 -6 20 -3 11 4 20 2 20 -4 0
-6 16 -11 35 -11 19 0 35 5 35 10 0 6 -6 10 -14 10 -8 0 -16 6 -18 13 -2 9
-12 10 -40 3z"/>
<path d="M1227 593 c-14 -13 -6 -25 8 -13 10 9 15 9 15 1 0 -6 11 -11 25 -11
31 0 33 16 3 24 -30 8 -43 7 -51 -1z"/>
<path d="M1325 580 c-3 -5 -1 -10 4 -10 6 0 11 5 11 10 0 6 -2 10 -4 10 -3 0
-8 -4 -11 -10z"/>
<path d="M1260 551 c0 -14 103 -21 117 -8 9 9 -3 13 -52 15 -36 1 -65 -2 -65
-7z"/>
<path d="M360 512 c0 -15 9 -19 63 -27 29 -5 47 -4 47 3 0 5 -18 12 -39 16
-22 3 -46 9 -55 12 -9 3 -16 1 -16 -4z"/>
<path d="M1275 503 c-47 -10 -47 -17 0 -24 47 -8 75 0 75 22 0 9 -39 10 -75 2z"/>
<path d="M442 423 c-18 -4 -21 -8 -12 -18 8 -10 16 -10 35 -1 14 6 25 14 25
19 0 7 -9 7 -48 0z"/>
<path d="M665 329 c-27 -5 -62 -6 -77 -3 -39 8 -35 -3 9 -21 27 -11 38 -12 44
-4 5 8 15 9 35 1 18 -6 22 -11 12 -11 -34 -2 -18 -19 25 -27 44 -8 95 -6 112
4 12 8 -30 20 -74 21 -52 2 -30 13 25 13 38 0 44 2 31 10 -10 5 -37 7 -60 4
-23 -3 -34 -3 -24 0 19 6 24 25 5 23 -7 -1 -35 -5 -63 -10z"/>
<path d="M1107 323 c-4 -3 -35 -7 -69 -9 -35 -2 -80 -10 -100 -19 -40 -16 -52
-31 -18 -22 11 3 20 1 20 -4 0 -5 18 -9 40 -9 31 0 38 3 34 15 -7 18 25 33 35
17 7 -12 101 16 101 30 0 10 -34 11 -43 1z m-112 -33 c3 -5 -3 -10 -14 -10
-12 0 -21 5 -21 10 0 6 6 10 14 10 8 0 18 -4 21 -10z"/>
<path d="M900 590 c-8 -5 -11 -12 -7 -16 4 -4 13 -2 19 4 15 15 7 24 -12 12z"/>
<path d="M827 583 c-4 -3 -7 -12 -7 -20 0 -11 4 -11 20 -1 11 7 20 16 20 20 0
10 -24 10 -33 1z"/>
<path d="M865 551 c3 -6 16 -11 29 -11 12 0 28 -6 35 -12 10 -11 12 -9 9 7 -2
15 -12 21 -42 23 -25 2 -36 0 -31 -7z"/>
<path d="M349 1433 c-11 -12 -14 -26 -8 -43 13 -47 12 -49 -27 -38 -32 8 -39
7 -58 -13 -11 -12 -15 -18 -8 -14 16 8 62 -31 62 -53 0 -12 3 -12 15 -2 13 10
12 15 -8 31 l-22 19 39 -6 39 -7 -7 39 -6 39 18 -22 19 -22 24 26 c13 14 18
23 11 19 -15 -9 -51 19 -61 47 -7 18 -7 18 -22 0z"/>
<path d="M1352 1398 c-22 -22 -13 -59 22 -94 35 -35 63 -43 84 -22 22 22 13
59 -22 94 -35 35 -63 43 -84 22z m88 -38 c8 -14 8 -26 0 -40 -19 -35 -80 -20
-80 20 0 40 61 55 80 20z"/>
<path d="M1510 1270 c0 -17 -57 -53 -70 -45 -8 5 67 -146 78 -155 3 -3 2 1 -2
8 -4 7 -1 12 8 12 9 0 16 -4 16 -9 0 -5 3 -17 7 -27 5 -14 3 -16 -11 -11 -14
6 -16 3 -10 -16 9 -31 23 -55 24 -40 0 7 14 28 30 46 17 19 30 39 30 45 0 6
-20 14 -43 17 -57 9 -78 21 -57 35 13 8 13 10 -2 10 -10 0 -22 9 -28 21 -14
26 1 46 41 57 l29 7 -20 30 c-11 17 -20 23 -20 15z m60 -189 c0 -6 -4 -13 -10
-16 -5 -3 -10 1 -10 9 0 9 5 16 10 16 6 0 10 -4 10 -9z"/>
<path d="M190 1240 c0 -4 11 -31 24 -60 23 -50 25 -51 36 -30 7 13 8 20 2 16
-18 -11 -22 10 -7 30 11 14 17 16 23 7 6 -9 13 -5 24 15 l16 27 -59 2 c-32 1
-59 -2 -59 -7z m48 -31 c-2 -6 -8 -10 -13 -10 -5 0 -11 4 -13 10 -2 6 4 11 13
11 9 0 15 -5 13 -11z"/>
<path d="M133 1144 c3 -4 0 -16 -8 -28 -19 -26 -19 -80 -1 -96 24 -19 59 -7
77 25 22 38 28 77 12 82 -7 3 -10 -8 -10 -27 2 -23 -4 -36 -20 -47 -19 -13
-23 -13 -42 6 -23 23 -18 61 10 68 22 6 15 23 -8 23 -9 0 -13 -3 -10 -6z"/>
<path d="M75 832 c-5 -4 -10 -33 -10 -65 0 -53 2 -57 24 -57 18 0 21 3 13 13
-6 7 -12 36 -14 65 -2 32 -7 49 -13 44z"/>
<path d="M127 833 c-4 -3 -7 -21 -7 -40 0 -26 4 -33 20 -33 11 0 20 -6 20 -14
0 -20 -17 -29 -23 -14 -2 7 -8 10 -12 5 -5 -4 -3 -13 3 -19 31 -31 63 36 48
98 -6 23 -34 33 -49 17z m33 -33 c0 -16 -4 -30 -10 -30 -5 0 -10 14 -10 30 0
17 5 30 10 30 6 0 10 -13 10 -30z"/>
<path d="M1538 800 c-27 -44 -27 -45 -7 -48 15 -3 20 -9 16 -23 -5 -18 -1 -20
40 -17 50 3 71 23 58 54 -4 11 -7 32 -6 47 2 25 -1 28 -21 25 -24 -3 -41 -48
-18 -48 7 0 9 8 5 20 -4 11 -2 20 4 20 14 0 14 -37 1 -45 -5 -3 -10 -11 -10
-16 0 -6 4 -8 9 -4 13 8 22 -10 15 -29 -5 -13 -10 -14 -20 -5 -7 6 -18 8 -24
4 -5 -3 -10 -1 -10 4 0 6 6 11 13 11 9 0 9 2 0 8 -6 4 -13 25 -15 47 l-3 40
-27 -45z m8 -37 c-10 -10 -19 5 -10 18 6 11 8 11 12 0 2 -7 1 -15 -2 -18z"/>
<path d="M1484 486 l-61 -11 27 -57 c26 -55 28 -56 38 -33 9 20 9 23 -5 18
-12 -5 -14 -1 -8 17 5 15 3 20 -3 16 -6 -3 -13 -2 -17 4 -7 12 47 10 56 -2 3
-5 13 8 22 27 9 19 16 34 14 34 -1 -1 -29 -7 -63 -13z"/>
<path d="M232 448 c-21 -21 -13 -57 23 -97 25 -27 41 -37 55 -34 18 5 18 6 2
30 -9 14 -18 21 -20 14 -6 -17 -30 -13 -41 7 -7 14 -6 25 5 40 27 38 74 22 74
-25 0 -22 10 -30 23 -17 8 8 -32 73 -53 84 -25 13 -53 13 -68 -2z"/>
<path d="M1335 360 c-33 -34 -36 -40 -19 -40 26 0 68 -44 59 -62 -4 -7 6 0 20
16 25 28 26 30 9 37 -11 4 -27 16 -37 26 -16 18 -16 22 -2 33 12 10 16 9 21
-3 3 -9 3 -22 -1 -29 -4 -7 3 -2 14 11 54 61 -5 71 -64 11z"/>
<path d="M385 337 c3 -7 -7 -28 -23 -45 -27 -29 -28 -32 -12 -47 21 -19 30
-19 30 0 0 27 20 16 26 -14 4 -17 15 -38 25 -47 22 -20 22 -19 10 24 -8 28 -7
32 9 32 25 0 35 17 19 36 -22 27 -89 76 -84 61z m55 -57 c0 -11 -6 -20 -13
-20 -19 0 -27 10 -20 26 8 21 33 17 33 -6z"/>
<path d="M516 236 c7 -18 -24 -78 -36 -71 -6 4 -10 4 -10 0 0 -9 112 -55 121
-49 17 10 9 21 -13 17 -13 -2 -29 1 -37 6 -12 8 -12 15 3 45 15 31 20 35 37
26 10 -6 19 -15 19 -20 0 -6 5 -10 10 -10 25 0 6 22 -40 45 -57 29 -61 30 -54
11z"/>
<path d="M1170 235 c-14 -8 -19 -14 -12 -15 14 0 16 -26 3 -34 -15 -10 -43 6
-37 20 4 10 -3 9 -29 -3 l-35 -17 37 -12 c42 -15 56 -33 41 -51 -14 -17 -3
-16 33 3 28 14 29 17 14 28 -16 11 -16 15 -1 51 9 21 15 39 14 41 -2 1 -14 -4
-28 -11z"/>
<path d="M563 182 c-7 -5 -9 -13 -4 -21 7 -11 11 -9 20 8 12 21 6 27 -16 13z"/>
<path d="M648 182 c17 -11 4 -72 -16 -80 -10 -3 6 -11 38 -18 72 -17 80 -17
80 2 0 12 -3 14 -13 6 -16 -14 -57 -4 -57 14 0 17 17 27 25 14 9 -14 25 -3 25
17 0 12 -3 13 -14 4 -18 -15 -34 5 -18 21 8 8 18 6 36 -6 20 -13 26 -13 26 -3
0 8 -21 18 -51 25 -60 14 -80 15 -61 4z"/>
<path d="M968 173 c-24 -4 -26 -7 -18 -29 6 -14 10 -36 10 -50 0 -27 1 -28 69
-13 38 8 48 14 44 26 -5 13 -7 13 -15 -1 -12 -21 -58 -21 -58 0 0 10 6 14 15
10 10 -4 15 1 15 16 0 17 -3 19 -12 10 -18 -18 -28 -15 -28 9 0 18 5 21 30 17
17 -3 30 -1 30 4 0 8 -32 9 -82 1z"/>
<path d="M797 149 c14 -14 6 -70 -11 -81 -6 -4 22 -8 62 -8 57 0 72 3 72 15 0
18 -5 19 -29 3 -33 -20 -54 -3 -49 42 3 39 2 40 -26 40 -23 0 -27 -3 -19 -11z"/>
</g>
</svg>
