<?xml version="1.0" ?><svg id="Layer_1" style="enable-background:new 0 0 64 64;" version="1.1" viewBox="0 0 64 64" xml:space="preserve" xmlns="http://www.w3.org/2000/svg" xmlns:xlink="http://www.w3.org/1999/xlink"><style type="text/css">
	.st0{fill:url(#SVGID_1_);}
	.st1{fill:none;stroke:#6081C4;stroke-width:1.858;stroke-linecap:round;stroke-linejoin:round;stroke-miterlimit:10;}
	.st2{fill:none;stroke:url(#SVGID_2_);stroke-linecap:round;stroke-linejoin:round;stroke-miterlimit:10;}
	.st3{fill:none;stroke:#5B6CB2;stroke-linecap:round;stroke-linejoin:round;stroke-miterlimit:10;}
	.st4{opacity:0.15;}
	.st5{opacity:0.2;}
	.st6{fill:#FFFFFF;}
</style><linearGradient gradientUnits="userSpaceOnUse" id="SVGID_1_" x1="15.1928" x2="48.8072" y1="52.03" y2="11.97"><stop offset="0" style="stop-color:#FABF63"/><stop offset="4.494138e-02" style="stop-color:#F79A55"/><stop offset="9.364688e-02" style="stop-color:#F47849"/><stop offset="0.1341" style="stop-color:#F26341"/><stop offset="0.1609" style="stop-color:#F15C3E"/><stop offset="0.2262" style="stop-color:#EA564A"/><stop offset="0.3446" style="stop-color:#D7456A"/><stop offset="0.3533" style="stop-color:#D5446D"/><stop offset="0.4532" style="stop-color:#CC4774"/><stop offset="0.6183" style="stop-color:#B24F87"/><stop offset="0.7129" style="stop-color:#A15594"/><stop offset="0.7615" style="stop-color:#8F5B9C"/><stop offset="0.8567" style="stop-color:#7364A8"/><stop offset="0.9395" style="stop-color:#616AAF"/><stop offset="1" style="stop-color:#5B6CB2"/></linearGradient><circle class="st0" cx="32" cy="32" r="26.1"/><linearGradient gradientUnits="userSpaceOnUse" id="SVGID_2_" x1="13.7605" x2="50.1378" y1="53.737" y2="10.3842"><stop offset="0" style="stop-color:#FABF63"/><stop offset="4.494138e-02" style="stop-color:#F79A55"/><stop offset="9.364688e-02" style="stop-color:#F47849"/><stop offset="0.1341" style="stop-color:#F26341"/><stop offset="0.1609" style="stop-color:#F15C3E"/><stop offset="0.2262" style="stop-color:#EA564A"/><stop offset="0.3446" style="stop-color:#D7456A"/><stop offset="0.3533" style="stop-color:#D5446D"/><stop offset="0.4532" style="stop-color:#CC4774"/><stop offset="0.6183" style="stop-color:#B24F87"/><stop offset="0.7129" style="stop-color:#A15594"/><stop offset="0.7615" style="stop-color:#8F5B9C"/><stop offset="0.8567" style="stop-color:#7364A8"/><stop offset="0.9395" style="stop-color:#616AAF"/><stop offset="1" style="stop-color:#5B6CB2"/></linearGradient><path class="st2" d="M52.1,12.7c4.8,5,7.8,11.8,7.8,19.3c0,15.4-12.5,27.9-27.9,27.9S4.1,47.4,4.1,32S16.6,4.1,32,4.1  c3.4,0,6.7,0.6,9.7,1.7"/><path class="st3" d="M45.5,7.6c1.2,0.6,2.3,1.4,3.3,2.2"/><circle class="st4" cx="32" cy="32" r="22.8"/><circle class="st4" cx="32" cy="32" r="17.5"/><g><g class="st5"><path d="M37.7,44H27.2c-3.4,0-6.2-2.8-6.2-6.2V27.2c0-3.4,2.8-6.2,6.2-6.2h10.5c3.4,0,6.2,2.8,6.2,6.2v10.5    C44,41.2,41.2,44,37.7,44z M27.2,22.9c-2.4,0-4.3,1.9-4.3,4.3v10.5c0,2.4,1.9,4.3,4.3,4.3h10.5c2.4,0,4.3-1.9,4.3-4.3V27.2    c0-2.4-1.9-4.3-4.3-4.3H27.2z"/><path d="M32.5,38.2c-3.2,0-5.8-2.6-5.8-5.8c0-3.2,2.6-5.8,5.8-5.8c3.2,0,5.8,2.6,5.8,5.8C38.2,35.6,35.6,38.2,32.5,38.2z     M32.5,28.6c-2.1,0-3.8,1.7-3.8,3.8c0,2.1,1.7,3.8,3.8,3.8c2.1,0,3.8-1.7,3.8-3.8C36.3,30.4,34.6,28.6,32.5,28.6z"/><circle cx="38.6" cy="26.4" r="1.3"/></g><g><g><g><path class="st6" d="M37.3,43.5H26.7c-3.4,0-6.2-2.8-6.2-6.2V26.7c0-3.4,2.8-6.2,6.2-6.2h10.5c3.4,0,6.2,2.8,6.2,6.2v10.5      C43.5,40.7,40.7,43.5,37.3,43.5z M26.7,22.4c-2.4,0-4.3,1.9-4.3,4.3v10.5c0,2.4,1.9,4.3,4.3,4.3h10.5c2.4,0,4.3-1.9,4.3-4.3      V26.7c0-2.4-1.9-4.3-4.3-4.3H26.7z"/></g><g><path class="st6" d="M32,37.8c-3.2,0-5.8-2.6-5.8-5.8c0-3.2,2.6-5.8,5.8-5.8c3.2,0,5.8,2.6,5.8,5.8C37.8,35.2,35.2,37.8,32,37.8      z M32,28.2c-2.1,0-3.8,1.7-3.8,3.8s1.7,3.8,3.8,3.8s3.8-1.7,3.8-3.8S34.1,28.2,32,28.2z"/></g><g><circle class="st6" cx="38.1" cy="25.9" r="1.3"/></g></g></g></g></svg>