<?xml version="1.0" ?><svg id="Layer_1" style="enable-background:new 0 0 64 64;" version="1.1" viewBox="0 0 64 64" xml:space="preserve" xmlns="http://www.w3.org/2000/svg" xmlns:xlink="http://www.w3.org/1999/xlink"><style type="text/css">
	.st0{fill:#2797CF;}
	.st1{fill:none;stroke:#6081C4;stroke-width:1.858;stroke-linecap:round;stroke-linejoin:round;stroke-miterlimit:10;}
	.st2{fill:none;stroke:#2797CF;stroke-linecap:round;stroke-linejoin:round;stroke-miterlimit:10;}
	.st3{opacity:0.15;}
	.st4{opacity:0.2;}
	.st5{fill:#FFFFFF;}
</style><circle class="st0" cx="32" cy="32" r="26.1"/><path class="st2" d="M52.1,12.7c4.8,5,7.8,11.8,7.8,19.3c0,15.4-12.5,27.9-27.9,27.9S4.1,47.4,4.1,32S16.6,4.1,32,4.1  c3.4,0,6.7,0.6,9.7,1.7"/><path class="st2" d="M45.5,7.6c1.2,0.6,2.3,1.4,3.3,2.2"/><circle class="st3" cx="32" cy="32" r="22.8"/><circle class="st3" cx="32" cy="32" r="17.5"/><g><g class="st4"><polygon id="XMLID_45_" points="22,31.7 22,42 26.9,42 26.9,30.9 26.9,28 22,28   "/><circle cx="24.4" cy="23.4" id="XMLID_44_" r="2.5"/><path d="M42.9,32.3c-0.3-2.6-1.5-4.3-5.1-4.3c-2.1,0-3.5,0.8-4.1,1.9h-0.1V28h-3.9v2.7V42h4.1v-7    c0-1.8,0.3-3.6,2.6-3.6c2.2,0,2.4,2.1,2.4,3.7V42H43v-7.7h0C43,33.6,43,32.9,42.9,32.3z" id="XMLID_43_"/></g><g><g><polygon class="st5" id="XMLID_36_" points="21.5,31.2 21.5,41.5 26.4,41.5 26.4,30.4 26.4,27.5 21.5,27.5    "/><circle class="st5" cx="23.9" cy="22.9" id="XMLID_35_" r="2.5"/><path class="st5" d="M42.4,31.8c-0.3-2.6-1.5-4.3-5.1-4.3c-2.1,0-3.5,0.8-4.1,1.9h-0.1v-1.9h-3.9v2.7v11.3h4.1v-7     c0-1.8,0.3-3.6,2.6-3.6c2.2,0,2.4,2.1,2.4,3.7v6.8h4.2v-7.7h0C42.5,33.1,42.5,32.4,42.4,31.8z" id="XMLID_34_"/></g></g></g></svg>