<?xml version="1.0" ?><svg id="Layer_1" style="enable-background:new 0 0 64 64;" version="1.1" viewBox="0 0 64 64" xml:space="preserve" xmlns="http://www.w3.org/2000/svg" xmlns:xlink="http://www.w3.org/1999/xlink"><style type="text/css">
	.st0{fill:#6081C4;}
	.st1{fill:none;stroke:#6081C4;stroke-width:1.858;stroke-linecap:round;stroke-linejoin:round;stroke-miterlimit:10;}
	.st2{fill:none;stroke:#6081C4;stroke-linecap:round;stroke-linejoin:round;stroke-miterlimit:10;}
	.st3{opacity:0.15;}
	.st4{opacity:0.2;}
	.st5{fill:#FFFFFF;}
</style><circle class="st0" cx="32" cy="32" r="26.1"/><path class="st2" d="M52.1,12.7c4.8,5,7.8,11.8,7.8,19.3c0,15.4-12.5,27.9-27.9,27.9S4.1,47.4,4.1,32S16.6,4.1,32,4.1  c3.4,0,6.7,0.6,9.7,1.7"/><path class="st2" d="M45.5,7.6c1.2,0.6,2.3,1.4,3.3,2.2"/><circle class="st3" cx="32" cy="32" r="22.8"/><circle class="st3" cx="32" cy="32" r="17.5"/><g id="XMLID_1_"><g class="st4"><path d="M35,25.8v-2.7c0-1.3,0.9-1.6,1.5-1.6c0.6,0,3.8,0,3.8,0v-5.7l-5.2,0c-5.7,0-7,4.3-7,7v3h-3.3v4v2.7H28    c0,7.6,0,16.7,0,16.7h6.7c0,0,0-9.2,0-16.7h5l0.2-2.6l0.4-4.1H35z"/></g><g><path class="st5" d="M34.5,25.3v-2.7c0-1.3,0.9-1.6,1.5-1.6c0.6,0,3.8,0,3.8,0v-5.7l-5.2,0c-5.7,0-7,4.3-7,7v3h-3.3v4V32h3.4    c0,7.6,0,16.7,0,16.7h6.7c0,0,0-9.2,0-16.7h5l0.2-2.6l0.4-4.1H34.5z"/></g></g></svg>